# xmcd
#
# Track frame offsets:
# 150
# 33680
# 80257
# 106920
# 130592
# 165359
# 194912
# 227870
# 246657
# 268236
# 291054
#
# Disc length: 4182 seconds
#
# Revision: 0
# Processed by: cddbd v1.5PL3 Copyright (c) Steve Scherf et al.
# Submitted via: Audion 3.0.2 (http://www.panic.com/audion/)
#
DISCID=9f10540b
DTITLE=Chet Baker - Cool Cat (1-6) \ Mister B (7-11)
DYEAR=1900
DGENRE=
TTITLE0=Swift Shifting (Harold Danko)
TTITLE1=Round Midnight (T. Monh - Williams)
TTITLE2=Caravelle (Burr)
TTITLE3=For All We Know (Koots - Lewis)
TTITLE4=Blue Moon (Rodgers - Hart)
TTITLE5=My Foolish Heart (Young - Waschington)
TTITLE6=In Your Own Sweet Way
TTITLE7=Mister B.
TTITLE8=Beatrice
TTITLE9=Ray's Ideas
TTITLE10=Everything Happens To Me
EXTD=
EXTT0=
EXTT1=
EXTT2=
EXTT3=
EXTT4=
EXTT5=
EXTT6=
EXTT7=
EXTT8=
EXTT9=
EXTT10=
PLAYORDER=
